<?xml version="1.0" standalone="no"?>
<!DOCTYPE svg PUBLIC "-//W3C//DTD SVG 20010904//EN"
 "http://www.w3.org/TR/2001/REC-SVG-20010904/DTD/svg10.dtd">
<svg version="1.0" xmlns="http://www.w3.org/2000/svg"
 width="1280.000000pt" height="640.000000pt" viewBox="0 0 1280.000000 640.000000"
 preserveAspectRatio="xMidYMid meet">
<metadata>
Created by potrace 1.15, written by Peter Selinger 2001-2017
</metadata>
<g transform="translate(0.000000,640.000000) scale(0.100000,-0.100000)"
fill="#ffffff" stroke="none">
<path d="M9595 3903 c-140 -19 -312 -82 -422 -156 -87 -58 -144 -117 -213
-220 -70 -104 -115 -132 -209 -130 -94 1 -198 56 -321 169 -149 136 -254 200
-419 254 -146 48 -270 63 -450 57 -170 -6 -263 -24 -387 -75 -142 -59 -262
-157 -321 -262 -34 -61 -71 -81 -193 -107 -119 -24 -362 -25 -406 -1 -28 15
-32 23 -37 73 -40 391 -993 490 -1487 155 -30 -21 -94 -75 -140 -121 -116
-114 -173 -142 -300 -147 -89 -4 -98 -2 -150 25 -40 21 -68 46 -103 93 -145
195 -312 296 -578 350 -219 44 -634 20 -775 -44 -144 -66 -286 -202 -369 -355
-16 -30 -42 -64 -58 -75 -38 -28 -137 -33 -213 -11 -112 33 -169 69 -277 181
-180 187 -321 260 -566 295 -123 17 -421 6 -535 -20 -352 -82 -586 -268 -651
-518 -68 -259 105 -532 440 -698 147 -73 241 -95 433 -102 229 -8 432 25 618
102 130 54 203 105 303 214 77 83 101 103 163 131 60 28 88 35 159 38 115 6
156 -14 189 -90 35 -82 76 -135 144 -185 184 -137 500 -212 841 -200 301 11
518 72 662 186 55 43 113 142 113 193 0 64 64 85 229 75 100 -5 209 -34 247
-65 11 -9 33 -41 49 -71 163 -299 790 -414 1260 -230 154 60 276 152 346 261
16 25 44 53 62 61 131 62 425 87 494 42 15 -10 23 -25 23 -45 0 -16 9 -55 21
-85 53 -143 245 -253 544 -312 128 -25 463 -25 590 0 197 39 344 99 443 179
29 24 79 81 111 128 41 60 72 94 106 115 44 27 56 30 134 30 122 0 169 -25
326 -175 161 -155 266 -215 473 -272 66 -19 105 -22 272 -22 223 -1 299 13
446 84 115 56 191 117 277 224 105 130 119 137 281 147 193 12 191 12 224 -16
16 -13 46 -55 68 -92 22 -38 75 -104 120 -149 69 -70 96 -89 186 -134 151 -73
256 -94 448 -87 113 4 167 11 242 31 477 127 759 481 684 856 -25 124 -64 197
-140 267 -160 146 -433 226 -776 226 -194 0 -314 -16 -452 -59 -218 -68 -334
-173 -358 -321 -5 -31 -12 -58 -15 -62 -10 -9 -150 -20 -275 -20 -137 -1 -134
-2 -214 120 -128 197 -323 316 -596 364 -78 14 -289 18 -365 8z m2433 -84
c245 -27 430 -106 568 -243 139 -138 183 -300 134 -490 -59 -232 -247 -410
-485 -460 -200 -42 -398 -44 -589 -5 -175 35 -298 97 -434 217 l-44 38 79 32
c129 53 127 53 266 -16 165 -83 220 -97 387 -97 111 0 149 4 215 23 113 33
210 87 282 158 85 84 117 153 117 254 0 233 -203 373 -564 387 -209 8 -375
-27 -498 -107 -156 -100 -260 -123 -298 -65 -13 20 -13 27 0 59 30 73 187 190
326 244 88 34 199 61 290 71 122 12 140 12 248 0z m-4217 -28 c284 -63 580
-223 614 -332 9 -26 -15 -49 -50 -49 -53 0 -179 43 -277 93 -153 79 -239 100
-425 105 -224 6 -349 -28 -466 -127 -73 -61 -190 -88 -263 -61 -24 9 -26 14
-21 46 20 119 275 277 547 339 81 18 220 12 341 -14z m2141 0 c299 -65 529
-199 558 -327 12 -54 -8 -68 -87 -61 -82 8 -142 35 -206 93 -107 97 -271 148
-472 147 -210 -1 -370 -54 -457 -152 -49 -55 -85 -76 -157 -92 -67 -14 -121 2
-121 36 0 28 71 125 136 185 119 111 203 160 317 186 90 20 361 12 489 -15z
m-6597 8 c235 -32 456 -137 588 -278 54 -57 56 -79 13 -100 -56 -27 -211 10
-561 132 -237 83 -368 70 -583 -56 -99 -58 -195 -89 -298 -94 -95 -6 -134 4
-134 33 0 19 87 111 154 163 208 160 535 240 821 200z m2235 -25 c211 -36 346
-99 486 -223 142 -126 139 -121 63 -121 -91 0 -175 23 -321 85 -148 64 -219
83 -343 91 -170 11 -299 -20 -595 -142 -93 -39 -127 -48 -175 -49 -55 0 -60 2
-63 23 -9 61 87 186 188 245 57 33 184 75 275 92 104 19 372 18 485 -1z
m-4467 -5 c269 -23 488 -118 585 -253 70 -97 45 -144 -71 -133 -49 4 -88 19
-192 70 -174 87 -239 101 -438 94 -120 -3 -173 -10 -251 -30 -256 -68 -407
-195 -407 -342 0 -69 26 -119 92 -179 120 -108 321 -168 564 -168 139 0 196 7
385 52 101 23 173 26 189 6 19 -23 -49 -72 -197 -142 -77 -37 -131 -68 -127
-74 21 -33 173 12 299 88 82 50 141 82 151 82 14 0 2 -24 -31 -60 -24 -26 -70
-57 -128 -85 -398 -195 -961 -126 -1260 155 -115 109 -176 228 -176 347 1 306
311 536 775 573 50 4 97 8 105 8 8 1 68 -3 133 -9z m8706 -215 c213 -31 480
-144 342 -144 -108 0 -183 -82 -183 -200 0 -91 34 -139 124 -175 91 -37 90
-70 -3 -118 -158 -80 -365 -88 -566 -23 -62 20 -113 40 -112 44 0 4 32 34 70
67 93 79 129 134 129 194 0 78 -61 140 -173 177 -29 9 -65 23 -81 29 l-29 12
74 56 c136 103 190 113 408 81z m2221 -18 c200 -33 304 -96 369 -224 88 -172
-35 -347 -294 -418 -33 -9 -108 -18 -166 -21 -131 -7 -223 11 -330 64 l-74 37
75 8 c133 16 200 74 200 172 -1 125 -87 215 -256 267 -35 11 -64 21 -64 23 0
2 42 21 93 41 158 64 283 78 447 51z m-8658 -26 c57 -11 212 -80 201 -90 -4
-4 -37 -18 -73 -31 -126 -45 -197 -149 -171 -249 23 -84 83 -137 198 -175 64
-20 71 -29 35 -44 -56 -23 -140 -31 -311 -31 -260 0 -411 24 -411 66 0 8 34
30 74 49 99 47 121 77 121 167 0 59 -3 70 -31 104 -30 37 -66 60 -152 97 -23
10 -42 25 -42 33 0 7 18 27 40 43 94 68 336 96 522 61z m2250 -4 c32 -9 83
-30 114 -47 l56 -32 -59 -27 c-69 -32 -116 -84 -132 -146 -31 -122 15 -223
108 -239 51 -9 61 -28 31 -60 -30 -32 -105 -60 -217 -81 -119 -22 -333 -15
-414 14 -91 33 -149 68 -149 91 0 5 25 11 56 15 86 10 140 47 178 123 33 65
13 177 -41 225 -10 10 -52 33 -93 52 l-75 34 77 36 c42 20 112 43 155 51 99
18 324 14 405 -9z m2144 13 c32 -6 106 -31 163 -57 115 -51 115 -46 -6 -81
-85 -25 -135 -66 -153 -128 -33 -109 47 -217 185 -249 125 -28 136 -38 86 -73
-43 -31 -127 -49 -281 -61 -167 -12 -339 0 -403 28 -50 23 -110 77 -105 94 3
7 24 17 47 22 99 21 150 144 105 256 -18 44 -49 71 -107 89 -45 15 -65 45 -45
68 55 67 355 121 514 92z m-6571 -54 c85 -16 143 -41 159 -67 16 -26 -2 -38
-68 -47 -58 -8 -88 -27 -111 -71 -52 -100 -8 -221 95 -259 55 -21 73 -46 45
-67 -41 -30 -100 -39 -260 -38 -174 0 -282 16 -420 60 -98 32 -125 46 -170 86
-89 78 -86 173 9 254 76 66 257 138 391 157 74 10 259 6 330 -8z m5832 -145
c154 -17 223 -38 266 -81 27 -26 37 -45 35 -61 -5 -35 -74 -76 -156 -93 -339
-70 -1334 -20 -1491 76 -120 73 226 151 759 173 130 5 487 -4 587 -14z m4560
-3 c81 -15 115 -39 133 -93 15 -43 -2 -98 -36 -120 -40 -27 -186 -44 -429 -50
-491 -14 -1064 56 -1162 141 -25 21 -26 25 -13 39 41 41 340 81 760 100 169 8
677 -4 747 -17z m-2093 -51 c21 -72 21 -129 -2 -149 -28 -26 -105 -38 -302
-47 -282 -14 -765 7 -1050 46 -213 28 -280 50 -280 91 0 49 23 68 105 89 43
10 490 20 1042 22 l472 2 15 -54z m-4784 25 c85 -6 175 -14 200 -17 38 -6 41
-8 20 -13 -15 -4 -26 -15 -28 -28 -2 -13 -13 -23 -30 -28 -15 -3 -211 -10
-437 -15 -459 -9 -621 -18 -606 -33 5 -5 232 -10 578 -11 529 -1 571 0 596 17
35 23 37 69 5 92 -22 15 -22 15 12 9 70 -12 138 -34 150 -49 11 -13 9 -20 -10
-39 -36 -39 -108 -64 -216 -75 -191 -19 -693 -33 -1081 -30 -377 4 -393 5
-420 25 -42 31 -67 85 -52 117 20 45 92 66 299 91 63 8 861 -3 1020 -13z
m-2210 -1 c292 -10 391 -21 456 -50 58 -25 58 -50 0 -105 -29 -28 -56 -44 -82
-49 -147 -26 -891 -29 -1304 -5 -295 17 -324 26 -318 99 4 46 39 65 158 86
162 28 656 39 1090 24z m4630 -370 c25 -6 92 -33 150 -60 162 -77 235 -93 420
-93 171 0 248 15 378 72 90 39 147 52 167 37 14 -10 14 -13 -1 -34 -9 -13 -54
-48 -100 -78 -81 -54 -100 -74 -69 -74 8 0 78 32 154 72 77 40 143 69 147 65
29 -29 -135 -128 -296 -180 -172 -54 -272 -70 -445 -71 -245 0 -391 37 -548
141 -82 55 -126 119 -108 159 11 24 60 53 91 53 8 0 35 -4 60 -9z m-4335 -54
c296 -115 467 -123 735 -36 307 99 319 32 21 -119 -75 -38 -145 -77 -156 -85
-20 -15 -19 -15 7 -16 65 0 293 98 399 172 33 24 64 38 75 36 30 -7 -87 -112
-171 -154 -137 -67 -201 -78 -465 -78 -188 -1 -253 3 -324 17 -198 40 -357
107 -421 178 -39 43 -44 68 -17 91 29 25 43 28 147 24 79 -3 115 -9 170 -30z
m2175 -11 c105 -53 168 -66 345 -72 207 -7 281 4 406 62 133 62 231 62 158 0
-38 -32 -102 -64 -205 -105 -42 -17 -86 -37 -97 -45 -19 -13 -19 -15 -3 -21
26 -10 160 29 272 79 175 78 224 85 150 22 -55 -49 -192 -112 -304 -142 -88
-24 -116 -26 -287 -27 -257 -1 -422 29 -582 105 -112 54 -158 113 -115 152 51
46 162 42 262 -8z m4419 5 c119 -49 253 -72 421 -73 173 -1 238 12 343 65 43
22 96 42 118 45 34 5 39 3 39 -15 0 -25 -52 -71 -154 -136 -56 -35 -75 -52
-62 -54 39 -8 187 58 294 131 24 16 46 27 48 24 8 -8 -119 -117 -171 -147
-178 -101 -546 -145 -760 -91 -114 29 -215 76 -332 153 -51 33 -93 62 -93 64
0 5 101 56 130 65 39 13 98 3 179 -31z"/>
<path d="M12513 2925 c-41 -86 -265 -181 -537 -226 -102 -17 -73 -27 84 -28
192 -1 304 35 418 135 55 48 108 126 97 144 -14 22 -46 10 -62 -25z"/>
<path d="M7139 3244 c-45 -49 -78 -56 -314 -65 -271 -10 -376 -22 -358 -40 27
-27 630 -40 723 -16 33 9 48 19 58 40 38 79 -50 144 -109 81z"/>
<path d="M11575 3222 l-50 -27 -340 -6 c-206 -3 -350 -10 -365 -16 l-25 -11
28 -11 c85 -33 740 -42 802 -11 35 18 55 71 35 95 -17 20 -26 19 -85 -13z"/>
<path d="M9332 3225 l-47 -45 -305 -5 c-168 -3 -352 -9 -410 -13 l-105 -8 210
-9 c116 -5 320 -10 455 -10 267 1 322 9 328 51 3 24 -42 84 -64 84 -8 0 -36
-20 -62 -45z"/>
<path d="M2776 3215 c-13 -34 -58 -38 -501 -46 -446 -7 -590 -15 -563 -30 25
-14 679 -28 894 -19 270 12 382 33 360 68 -10 16 -102 42 -147 42 -24 0 -39
-5 -43 -15z"/>
</g>
</svg>
