<svg xmlns="http://www.w3.org/2000/svg" version="1.1" xmlns:xlink="http://www.w3.org/1999/xlink" xmlns:svgjs="http://svgjs.dev/svgjs" width="1500" height="1500" viewBox="0 0 1500 1500"><rect width="1500" height="1500" fill="#ffffff"></rect><g transform="matrix(0.6666666666666666,0,0,0.6666666666666666,249.39393939393938,583.5872317160741)"><svg viewBox="0 0 396 132" data-background-color="#051726" preserveAspectRatio="xMidYMid meet" height="500" width="1500" xmlns="http://www.w3.org/2000/svg" xmlns:xlink="http://www.w3.org/1999/xlink"><g id="tight-bounds" transform="matrix(1,0,0,1,0.2400000000000091,-0.10054375956534045)"><svg viewBox="0 0 395.52 132.20108751913068" height="132.20108751913068" width="395.52"><g><svg viewBox="0 0 657.4223656102113 219.74097818838354" height="132.20108751913068" width="395.52"><g transform="matrix(1,0,0,1,259.9247656102114,60.549569636690414)"><svg viewBox="0 0 397.49759999999986 98.64183891500271" height="98.64183891500271" width="397.49759999999986"><g id="textblocktransform"><svg viewBox="0 0 397.49759999999986 98.64183891500271" height="98.64183891500271" width="397.49759999999986" id="textblock"><g><rect width="397.49759999999986" height="5.451617045500798" x="0" y="66.8739876589119" fill="#000000" opacity="1" stroke-width="0" stroke="transparent" fill-opacity="1" class="rect-qz-0" data-fill-palette-color="primary" rx="1%" id="qz-0" data-palette-color="#ffffff"></rect></g><g transform="matrix(1,0,0,1,0.9887999999999693,0)"><svg viewBox="0 0 395.5199999999999 60.451925694316714" height="60.451925694316714" width="395.5199999999999"><g transform="matrix(1,0,0,1,0,0)"><svg width="395.5199999999999" viewBox="1.76 -39.11 265.44 40.57" height="60.451925694316714" data-palette-color="#ffffff"><path d="M24.56-16.11L24.56-16.11Q24.56-14.7 24.34-12.92 24.12-11.13 23.66-9.28 23.19-7.42 22.44-5.66 21.68-3.91 20.58-2.51 19.48-1.12 18.04-0.29 16.6 0.54 14.7 0.54L14.7 0.54Q12.7 0.54 11.06-0.39 9.42-1.32 8.25-2.93L8.25-2.93Q8.11-1.61 7.18-0.61 6.25 0.39 4.83 0.39L4.83 0.39Q4 0.39 3.44-0.44 2.88-1.27 2.54-2.56 2.2-3.86 2.03-5.42 1.86-6.98 1.81-8.45 1.76-9.91 1.76-11.08 1.76-12.26 1.76-12.74L1.76-12.74Q1.76-14.4 1.78-16.06 1.81-17.72 1.86-19.43L1.86-19.43Q1.86-20.26 1.83-21.92 1.81-23.58 1.86-25.61 1.9-27.64 2.08-29.76 2.25-31.88 2.69-33.64 3.13-35.4 3.91-36.52 4.69-37.65 5.91-37.7L5.91-37.7Q6.88-37.7 7.57-37.01 8.25-36.33 8.72-35.21 9.18-34.08 9.45-32.69 9.72-31.3 9.84-29.91 9.96-28.52 9.99-27.27 10.01-26.03 10.01-25.24L10.01-25.24Q10.01-25.1 9.99-24.58 9.96-24.07 9.96-23.49 9.96-22.9 9.96-22.44 9.96-21.97 9.96-21.92L9.96-21.92Q10.4-22.85 11.23-23.73 12.06-24.61 13.09-25.29 14.11-25.98 15.23-26.42 16.36-26.86 17.38-26.86L17.38-26.86Q19.43-26.86 20.83-25.81 22.22-24.76 23.05-23.14 23.88-21.53 24.22-19.65 24.56-17.77 24.56-16.11ZM17.38-14.65L17.38-14.65Q17.38-15.23 17.31-15.92 17.24-16.6 16.97-17.19 16.7-17.77 16.24-18.16 15.77-18.55 15.04-18.55L15.04-18.55Q14.26-18.55 13.5-18.21 12.74-17.87 12.06-17.33 11.38-16.8 10.79-16.19 10.21-15.58 9.77-14.99L9.77-14.99 9.28-10.64Q10.06-9.52 11.18-8.86 12.3-8.2 13.72-8.2L13.72-8.2Q14.79-8.2 15.5-8.89 16.21-9.57 16.63-10.57 17.04-11.57 17.21-12.7 17.38-13.82 17.38-14.65ZM36.67-29.59L36.67-29.59Q36.67-26.95 36.45-24.29 36.23-21.63 36.23-18.95L36.23-18.95Q36.23-15.48 36.45-12.01 36.67-8.54 36.67-5.03L36.67-5.03Q36.67-4.15 36.57-3.05 36.47-1.95 36.11-1.03 35.74-0.1 35.01 0.54 34.27 1.17 33.05 1.17L33.05 1.17Q31.88 1.17 31.03 0.02 30.17-1.12 29.61-2.91 29.05-4.69 28.68-6.88 28.32-9.08 28.15-11.16 27.98-13.23 27.9-14.97 27.83-16.7 27.83-17.53L27.83-17.53Q27.83-18.46 27.9-20.21 27.98-21.97 28.22-24.02 28.46-26.07 28.88-28.2 29.29-30.32 29.98-32.06 30.66-33.79 31.61-34.89 32.57-35.99 33.88-35.99L33.88-35.99Q34.96-35.99 35.52-35.28 36.08-34.57 36.33-33.57 36.57-32.57 36.62-31.47 36.67-30.37 36.67-29.59ZM49.65 1.42L49.65 1.42Q47.16 1.42 45.31 0.1 43.45-1.22 42.18-3.27 40.91-5.32 40.28-7.84 39.64-10.35 39.64-12.79L39.64-12.79Q39.64-15.38 40.28-18.14 40.91-20.9 42.23-23.17 43.55-25.44 45.6-26.88 47.65-28.32 50.48-28.32L50.48-28.32Q53.22-28.32 55.15-26.83 57.08-25.34 58.25-23.12 59.42-20.9 59.91-18.26 60.4-15.63 60.25-13.28L60.25-13.28Q60.1-10.69 59.44-8.06 58.78-5.42 57.51-3.32 56.25-1.22 54.29 0.1 52.34 1.42 49.65 1.42ZM50.14-20.65L50.14-20.65Q49.41-20.65 48.85-19.87 48.29-19.09 47.92-17.97 47.55-16.85 47.36-15.6 47.16-14.36 47.16-13.43L47.16-13.43Q47.16-12.26 47.38-10.89 47.6-9.52 47.99-8.37 48.38-7.23 48.95-6.47 49.51-5.71 50.24-5.71L50.24-5.71Q51.02-5.71 51.58-6.45 52.14-7.18 52.49-8.3 52.83-9.42 52.97-10.77 53.12-12.11 53.12-13.28L53.12-13.28Q53.12-14.36 52.92-15.65 52.73-16.94 52.36-18.07 52-19.19 51.44-19.92 50.87-20.65 50.14-20.65ZM80.85-18.75L80.85-18.75Q80.85-18.51 80.8-18.24 80.75-17.97 80.66-17.72L80.66-17.72Q80.22-16.6 79.29-15.84 78.36-15.09 77.09-15.09L77.09-15.09Q75.19-15.09 74.5-16.99L74.5-16.99Q74.41-17.24 74.41-17.55 74.41-17.87 74.36-18.21L74.36-18.21 74.36-19.63Q74.26-20.31 74.02-20.7 73.77-21.09 73.19-21.09L73.19-21.09Q72.36-21.09 71.6-20.04 70.84-18.99 70.28-17.55 69.72-16.11 69.38-14.6 69.04-13.09 69.04-12.16L69.04-12.16Q69.04-11.43 69.13-10.38 69.23-9.33 69.52-8.35 69.82-7.37 70.33-6.67 70.84-5.96 71.67-5.96L71.67-5.96Q72.5-5.96 73.21-6.47 73.92-6.98 74.6-7.67L74.6-7.67Q75.24-8.25 75.99-8.89 76.75-9.52 77.73-9.52L77.73-9.52Q78.95-9.52 79.66-8.64 80.36-7.76 80.36-6.64L80.36-6.64Q80.36-4.98 79.48-3.54 78.61-2.1 77.29-1.05 75.97 0 74.36 0.61 72.75 1.22 71.28 1.22L71.28 1.22Q68.64 1.22 66.81-0.1 64.98-1.42 63.86-3.44 62.74-5.47 62.25-7.86 61.76-10.25 61.76-12.4L61.76-12.4Q61.76-14.89 62.44-17.8 63.13-20.7 64.54-23.19 65.96-25.68 68.18-27.34 70.4-29 73.48-29L73.48-29Q75.38-29 76.77-28.17 78.17-27.34 79.07-26 79.97-24.66 80.44-23 80.9-21.34 80.9-19.73L80.9-19.73Q80.9-19.48 80.9-19.24 80.9-18.99 80.85-18.75ZM105.26-26.27L105.26-26.27Q105.26-24.9 104.56-23.49 103.85-22.07 102.85-20.68 101.85-19.29 100.75-18.04 99.65-16.8 98.82-15.77L98.82-15.77Q99.5-14.7 100.53-12.92 101.55-11.13 102.48-9.13 103.41-7.13 104.07-5.22 104.73-3.32 104.73-2.05L104.73-2.05Q104.73-1.03 104.09-0.17 103.46 0.68 102.33 0.68L102.33 0.68Q101.5 0.68 100.65-0.02 99.79-0.73 98.94-1.88 98.09-3.03 97.3-4.44 96.52-5.86 95.86-7.23 95.2-8.59 94.69-9.79 94.18-10.99 93.89-11.72L93.89-11.72Q93.25-11.08 92.54-10.67 91.84-10.25 91.15-9.72L91.15-9.72Q91.15-8.69 91.08-6.84 91.01-4.98 90.64-3.17 90.27-1.37 89.44-0.02 88.61 1.32 87 1.32L87 1.32Q85.73 1.32 85.05 0.17 84.37-0.98 84.05-2.51 83.73-4.05 83.68-5.64 83.63-7.23 83.63-8.06L83.63-8.06Q83.63-11.67 83.83-15.28 84.02-18.9 84.07-22.51L84.07-22.51Q84.07-23.34 84.1-24.68 84.12-26.03 84.27-27.59 84.41-29.15 84.71-30.76 85-32.37 85.54-33.67 86.07-34.96 86.93-35.77 87.78-36.57 89-36.57L89-36.57Q89.88-36.57 90.49-35.91 91.1-35.25 91.47-34.23 91.84-33.2 92.01-31.93 92.18-30.66 92.25-29.42 92.32-28.17 92.32-27.1 92.32-26.03 92.32-25.39L92.32-25.39Q92.32-24.95 92.3-24.1 92.28-23.24 92.25-22.31 92.23-21.39 92.23-20.61 92.23-19.82 92.32-19.48L92.32-19.48Q92.67-19.48 93.35-20.14 94.03-20.8 94.94-21.83 95.84-22.85 96.89-24 97.94-25.15 99.04-26.17 100.14-27.2 101.21-27.86 102.28-28.52 103.21-28.52L103.21-28.52Q104.19-28.52 104.73-27.83 105.26-27.15 105.26-26.27ZM139.49-6.88L139.49-6.88Q139.49-6.01 139.41-4.59 139.34-3.17 139-1.83 138.66-0.49 137.92 0.49 137.19 1.46 135.87 1.46L135.87 1.46Q134.07 1.46 133.09 0.29 132.11-0.88 132.16-2.64L132.16-2.64Q130.6-1.27 128.62-0.49 126.65 0.29 124.59 0.29L124.59 0.29Q123.18 0.29 121.91-0.39 120.64-1.07 119.66-2.15 118.69-3.22 118.1-4.57 117.51-5.91 117.51-7.23L117.51-7.23Q117.51-9.57 118.95-11.33 120.4-13.09 122.49-14.33 124.59-15.58 126.96-16.31 129.33-17.04 131.19-17.29L131.19-17.29Q131.19-17.53 131.21-17.72 131.24-17.92 131.24-18.16L131.24-18.16Q131.24-19.68 130.4-20.61 129.57-21.53 128.06-21.53L128.06-21.53Q126.84-21.53 125.96-21.12 125.08-20.7 124.3-20.19 123.52-19.68 122.74-19.26 121.96-18.85 120.98-18.85L120.98-18.85Q119.91-18.85 119.15-19.53 118.39-20.21 118.39-21.29L118.39-21.29Q118.39-22.9 119.35-24.22 120.3-25.54 121.74-26.44 123.18-27.34 124.86-27.86 126.55-28.37 127.96-28.37L127.96-28.37Q129.28-28.37 130.6-28.05 131.92-27.73 133.09-27.08 134.26-26.42 135.21-25.46 136.17-24.51 136.75-23.24L136.75-23.24Q137.63-21.44 138.17-19.41 138.71-17.38 139-15.26 139.29-13.13 139.39-11.01 139.49-8.89 139.49-6.88ZM131.67-8.45L131.67-8.45 131.53-11.77Q131.43-11.77 131.33-11.79 131.24-11.82 131.14-11.82L131.14-11.82Q130.5-11.82 129.55-11.5 128.6-11.18 127.72-10.62 126.84-10.06 126.23-9.38 125.62-8.69 125.62-7.96L125.62-7.96Q125.62-7.28 126.11-7.03 126.6-6.79 127.23-6.79L127.23-6.79Q128.31-6.79 129.53-7.35 130.75-7.91 131.67-8.45ZM156.28 1.37L156.28 1.37Q155.45 1.37 154.96 0.61 154.47-0.15 154.23-1.12 153.99-2.1 153.91-3.1 153.84-4.1 153.84-4.64L153.84-4.64Q153.84-6.1 154.01-7.57 154.18-9.03 154.4-10.5 154.62-11.96 154.79-13.43 154.96-14.89 154.96-16.36L154.96-16.36Q154.96-16.94 154.91-17.63 154.87-18.31 154.69-18.92 154.52-19.53 154.13-19.92 153.74-20.31 153.11-20.31L153.11-20.31Q152.67-20.31 152.13-19.6 151.59-18.9 151.13-17.99 150.67-17.09 150.35-16.19 150.03-15.28 150.03-14.84L150.03-14.84Q150.03-13.77 150.06-12.67 150.08-11.57 150.08-10.45L150.08-10.45 150.08-7.62Q150.03-6.74 149.93-5.81 149.84-4.88 149.64-4L149.64-4Q149.49-3.13 149.2-2.32 148.91-1.51 148.44-0.9 147.98-0.29 147.35 0.1 146.71 0.49 145.83 0.49L145.83 0.49Q144.86 0.49 144.22-0.15 143.59-0.78 143.2-1.78 142.8-2.78 142.63-4.03 142.46-5.27 142.39-6.47 142.32-7.67 142.34-8.67 142.37-9.67 142.37-10.25L142.37-10.25 142.37-12.55Q142.37-14.4 142.29-16.21 142.22-18.02 142.22-19.82L142.22-19.82Q142.22-20.8 142.24-22.31 142.27-23.83 142.61-25.27 142.95-26.71 143.73-27.73 144.51-28.76 146.03-28.76L146.03-28.76Q146.71-28.76 147.25-28.32 147.79-27.88 148.2-27.25 148.62-26.61 148.88-25.88 149.15-25.15 149.3-24.61L149.3-24.61Q149.79-25.29 150.45-25.93 151.11-26.56 151.94-27.05 152.77-27.54 153.79-27.83 154.82-28.13 156.13-28.13L156.13-28.13Q158.63-28.13 160.02-26.93 161.41-25.73 162.07-23.95 162.73-22.17 162.87-20.12 163.02-18.07 163.02-16.41L163.02-16.41Q163.02-15.58 162.87-13.94 162.73-12.3 162.41-10.33 162.09-8.35 161.55-6.27 161.02-4.2 160.29-2.49 159.55-0.78 158.55 0.29 157.55 1.37 156.28 1.37ZM186.8-32.13L186.8-32.13Q186.8-28.56 186.53-25.05 186.26-21.53 186.26-17.97L186.26-17.97Q186.26-15.09 186.43-12.26 186.6-9.42 186.6-6.54L186.6-6.54Q186.6-5.76 186.55-4.66 186.5-3.56 186.23-2.54 185.97-1.51 185.36-0.78 184.75-0.05 183.62-0.05L183.62-0.05Q182.16-0.05 181.21-1.15 180.25-2.25 180.01-3.61L180.01-3.61Q179.08-1.86 177.32-0.63 175.57 0.59 173.52 0.59L173.52 0.59Q171.32 0.59 169.73-0.93 168.14-2.44 167.09-4.59 166.04-6.74 165.53-9.08 165.02-11.43 165.02-13.13L165.02-13.13Q165.02-14.36 165.17-15.92 165.31-17.48 165.68-19.09 166.04-20.7 166.63-22.24 167.22-23.78 168.12-25 169.02-26.22 170.27-26.95 171.51-27.69 173.12-27.69L173.12-27.69Q174.88-27.69 176.49-26.66 178.11-25.63 178.94-24.12L178.94-24.12 179.37-31.88Q179.42-32.81 179.52-34.06 179.62-35.3 179.94-36.43 180.25-37.55 180.94-38.33 181.62-39.11 182.94-39.11L182.94-39.11Q184.36-39.11 185.14-38.43 185.92-37.74 186.28-36.69 186.65-35.64 186.72-34.42 186.8-33.2 186.8-32.13ZM178.84-10.06L178.84-10.45Q178.84-11.57 178.79-12.65 178.74-13.72 178.79-14.84L178.79-14.84Q178.5-15.48 178.11-16.24 177.71-16.99 177.15-17.65 176.59-18.31 175.91-18.75 175.22-19.19 174.44-19.19L174.44-19.19Q173.56-19.19 173.03-18.65 172.49-18.12 172.25-17.36 172-16.6 171.93-15.72 171.86-14.84 171.86-14.21L171.86-14.21Q171.86-13.62 171.95-12.48 172.05-11.33 172.32-10.16 172.59-8.98 173.08-8.11 173.56-7.23 174.39-7.23L174.39-7.23Q175.03-7.23 175.66-7.5 176.3-7.76 176.86-8.18 177.42-8.59 177.93-9.11 178.45-9.62 178.84-10.06L178.84-10.06ZM218.73-18.26L218.73-18.26Q218.04-18.21 217.55-18.38 217.06-18.55 216.58-18.75L216.58-18.75Q216.14-18.95 215.7-19.12 215.26-19.29 214.72-19.24L214.72-19.24Q213.74-19.19 212.99-18.7 212.23-18.21 211.62-17.48 211.01-16.75 210.57-15.84 210.13-14.94 209.89-14.06L209.89-14.06Q209.74-13.48 209.67-12.28 209.59-11.08 209.59-9.72L209.59-9.72Q209.55-8.3 209.55-7.03 209.55-5.76 209.45-5.03L209.45-5.03Q209.4-4.25 209.2-3.2 209.01-2.15 208.59-1.22 208.18-0.29 207.49 0.34 206.81 0.98 205.74 0.98L205.74 0.98Q204.91 0.98 204.3 0.49 203.69 0 203.27-0.81 202.86-1.61 202.59-2.69 202.32-3.76 202.17-4.88L202.17-4.88Q202.03-6.05 201.95-7.23 201.88-8.4 201.85-9.45 201.83-10.5 201.85-11.38 201.88-12.26 201.88-12.79L201.88-12.79Q201.83-14.5 201.71-16.24 201.59-17.97 201.59-19.68L201.59-19.68Q201.59-20.75 201.68-22.07 201.78-23.39 202.22-24.54 202.66-25.68 203.52-26.46 204.37-27.25 205.88-27.25L205.88-27.25Q206.71-27.25 207.3-26.71 207.89-26.17 208.25-25.39 208.62-24.61 208.81-23.73 209.01-22.85 209.06-22.12L209.06-22.12Q210.23-24.02 211.69-25.22 213.16-26.42 215.5-26.51L215.5-26.51Q216.67-26.56 217.82-26.29 218.97-26.03 219.92-25.42 220.87-24.8 221.48-23.83 222.09-22.85 222.14-21.53L222.14-21.53Q222.24-19.97 221.22-19.14 220.19-18.31 218.73-18.26ZM232.15 1.42L232.15 1.42Q229.66 1.42 227.8 0.1 225.95-1.22 224.68-3.27 223.41-5.32 222.78-7.84 222.14-10.35 222.14-12.79L222.14-12.79Q222.14-15.38 222.78-18.14 223.41-20.9 224.73-23.17 226.05-25.44 228.1-26.88 230.15-28.32 232.98-28.32L232.98-28.32Q235.71-28.32 237.64-26.83 239.57-25.34 240.74-23.12 241.92-20.9 242.4-18.26 242.89-15.63 242.75-13.28L242.75-13.28Q242.6-10.69 241.94-8.06 241.28-5.42 240.01-3.32 238.74-1.22 236.79 0.1 234.84 1.42 232.15 1.42ZM232.64-20.65L232.64-20.65Q231.91-20.65 231.34-19.87 230.78-19.09 230.42-17.97 230.05-16.85 229.86-15.6 229.66-14.36 229.66-13.43L229.66-13.43Q229.66-12.26 229.88-10.89 230.1-9.52 230.49-8.37 230.88-7.23 231.44-6.47 232-5.71 232.74-5.71L232.74-5.71Q233.52-5.71 234.08-6.45 234.64-7.18 234.98-8.3 235.32-9.42 235.47-10.77 235.62-12.11 235.62-13.28L235.62-13.28Q235.62-14.36 235.42-15.65 235.23-16.94 234.86-18.07 234.49-19.19 233.93-19.92 233.37-20.65 232.64-20.65ZM254.36-29.59L254.36-29.59Q254.36-26.95 254.14-24.29 253.93-21.63 253.93-18.95L253.93-18.95Q253.93-15.48 254.14-12.01 254.36-8.54 254.36-5.03L254.36-5.03Q254.36-4.15 254.27-3.05 254.17-1.95 253.8-1.03 253.44-0.1 252.7 0.54 251.97 1.17 250.75 1.17L250.75 1.17Q249.58 1.17 248.72 0.02 247.87-1.12 247.31-2.91 246.75-4.69 246.38-6.88 246.01-9.08 245.84-11.16 245.67-13.23 245.6-14.97 245.53-16.7 245.53-17.53L245.53-17.53Q245.53-18.46 245.6-20.21 245.67-21.97 245.92-24.02 246.16-26.07 246.58-28.2 246.99-30.32 247.68-32.06 248.36-33.79 249.31-34.89 250.26-35.99 251.58-35.99L251.58-35.99Q252.66-35.99 253.22-35.28 253.78-34.57 254.02-33.57 254.27-32.57 254.32-31.47 254.36-30.37 254.36-29.59ZM267.2-29.59L267.2-29.59Q267.2-26.95 266.98-24.29 266.76-21.63 266.76-18.95L266.76-18.95Q266.76-15.48 266.98-12.01 267.2-8.54 267.2-5.03L267.2-5.03Q267.2-4.15 267.11-3.05 267.01-1.95 266.64-1.03 266.28-0.1 265.54 0.54 264.81 1.17 263.59 1.17L263.59 1.17Q262.42 1.17 261.56 0.02 260.71-1.12 260.15-2.91 259.59-4.69 259.22-6.88 258.85-9.08 258.68-11.16 258.51-13.23 258.44-14.97 258.37-16.7 258.37-17.53L258.37-17.53Q258.37-18.46 258.44-20.21 258.51-21.97 258.76-24.02 259-26.07 259.42-28.2 259.83-30.32 260.51-32.06 261.2-33.79 262.15-34.89 263.1-35.99 264.42-35.99L264.42-35.99Q265.49-35.99 266.06-35.28 266.62-34.57 266.86-33.57 267.11-32.57 267.16-31.47 267.2-30.37 267.2-29.59Z" opacity="1" transform="matrix(1,0,0,1,0,0)" fill="#000000" class="wordmark-text-0" data-fill-palette-color="primary" id="text-0"></path></svg></g></svg></g><g transform="matrix(1,0,0,1,0,78.74766666900788)"><svg viewBox="0 0 232.20979199999994 19.894172245994824" height="19.894172245994824" width="232.20979199999994"><g transform="matrix(1,0,0,1,0,0)"><svg width="232.20979199999994" viewBox="1.12 -35.79 425.14 36.42" height="19.894172245994824" data-palette-color="#81ffd9"><path d="M22.71-13.92L22.71-13.92 21.68-3.08 1.12-1.46Q1.27-9.99 1.45-18.41 1.64-26.83 1.9-35.35L1.9-35.35 14.6-35.35Q14.04-30 13.53-24.67 13.01-19.34 12.79-13.92L12.79-13.92Q13.94-13.87 15.06-13.87 16.19-13.87 17.33-13.87L17.33-13.87Q18.7-13.87 20.02-13.89 21.34-13.92 22.71-13.92ZM51.1-19.73L51.1-19.73Q51.1-17.6 50.8-15.48L50.8-15.48Q46.63-15.21 42.5-14.61 38.38-14.01 34.25-13.43L34.25-13.43Q34.89-11.67 36.24-10.62 37.6-9.57 39.48-9.57L39.48-9.57Q40.45-9.57 41.61-9.94 42.77-10.3 43.92-10.85 45.07-11.4 46.12-12.04 47.17-12.67 47.92-13.18L47.92-13.18 46.75-2.1Q45.8-1.37 44.69-0.85 43.58-0.34 42.38-0.02 41.18 0.29 39.96 0.44 38.74 0.59 37.57 0.59L37.57 0.59Q35.15 0.59 33.15-0.07 31.15-0.73 29.53-1.92 27.9-3.1 26.68-4.71 25.46-6.32 24.66-8.23 23.85-10.13 23.43-12.26 23.02-14.38 23.02-16.55L23.02-16.55Q23.02-18.82 23.43-21.09 23.85-23.36 24.69-25.46 25.53-27.56 26.82-29.36 28.1-31.15 29.81-32.5 31.52-33.84 33.68-34.59 35.84-35.35 38.45-35.35L38.45-35.35Q40.62-35.35 42.42-34.75 44.21-34.16 45.62-33.09 47.02-32.03 48.06-30.57 49.09-29.1 49.77-27.36 50.44-25.61 50.77-23.67 51.1-21.73 51.1-19.73ZM41.33-20.46L41.33-21Q41.33-21.68 41.18-22.4 41.04-23.12 40.71-23.71 40.38-24.29 39.84-24.67 39.3-25.05 38.5-25.05L38.5-25.05Q37.52-25.05 36.78-24.52 36.03-24 35.5-23.21 34.96-22.41 34.62-21.48 34.27-20.56 34.1-19.78L34.1-19.78 41.33-20.46ZM72.6-34.96L82.12-2.1 70.01-0.54 68.55-6.05 62.98-6.05 61.76-0.54 49.31-1.76 59.03-34.28 72.6-34.96ZM64.01-13.53L67.67-13.53 65.82-22.02 64.01-13.53ZM111.25-23.54L111.25-23.54Q111.25-21.63 110.92-20.08 110.59-18.53 109.88-17.24 109.17-15.94 108.05-14.84 106.93-13.75 105.34-12.74L105.34-12.74 111.15-2.39 100.16-0.24 96.4-10.64 93.38-10.55 92.94-0.39 82.44-0.39Q82.56-5.96 82.67-11.47 82.78-16.99 82.93-22.56L82.93-22.56Q82.98-25.37 83.02-28.13 83.07-30.88 83.22-33.69L83.22-33.69Q84.93-34.33 86.59-34.74 88.25-35.16 89.92-35.39 91.59-35.62 93.32-35.71 95.04-35.79 96.84-35.79L96.84-35.79Q99.63-35.79 102.23-35.02 104.83-34.25 106.83-32.71 108.83-31.18 110.04-28.88 111.25-26.59 111.25-23.54ZM100.31-22.75L100.31-22.75Q100.31-23.78 100.03-24.63 99.75-25.49 99.2-26.11 98.65-26.73 97.83-27.09 97.01-27.44 95.92-27.44L95.92-27.44Q95.43-27.44 94.96-27.38 94.5-27.32 94.06-27.2L94.06-27.2 93.67-18.12 94.26-18.12Q95.31-18.12 96.39-18.38 97.48-18.65 98.34-19.21 99.21-19.78 99.76-20.65 100.31-21.53 100.31-22.75ZM143.23-12.35L143.23-12.35Q143.23-9.59 143.17-6.9 143.11-4.2 142.98-1.46L142.98-1.46 128.92-1.71Q129.65-6.03 130.19-10.34 130.73-14.65 130.73-19.04L130.73-19.04Q130.73-19.36 130.7-20.07 130.68-20.78 130.61-21.67 130.53-22.56 130.4-23.5 130.26-24.44 130.03-25.22 129.8-26 129.47-26.5 129.14-27 128.68-27L128.68-27Q127.85-27 127.27-26.51 126.7-26.03 126.32-25.26 125.94-24.49 125.72-23.54 125.5-22.58 125.39-21.63 125.28-20.68 125.25-19.84 125.21-18.99 125.21-18.46L125.21-18.46Q125.09-14.14 125.01-9.88 124.94-5.62 124.82-1.27L124.82-1.27 112.37-0.73Q112.86-9.35 113.31-17.87 113.76-26.39 114.03-35.01L114.03-35.01 125.55-35.6 125.45-31.69Q126.14-32.52 126.93-33.25 127.72-33.98 128.63-34.51 129.53-35.03 130.54-35.34 131.56-35.64 132.68-35.64L132.68-35.64Q134.76-35.64 136.32-34.96 137.88-34.28 139-33.11 140.13-31.93 140.88-30.33 141.64-28.74 142.1-26.93 142.57-25.12 142.81-23.16 143.06-21.19 143.14-19.29 143.23-17.38 143.23-15.6 143.23-13.82 143.23-12.35ZM183.7-8.69L183.7-8.69Q183.7-6.67 182.96-5.2 182.21-3.74 180.97-2.71 179.72-1.68 178.1-1.04 176.47-0.39 174.72-0.02 172.96 0.34 171.19 0.46 169.42 0.59 167.88 0.59L167.88 0.59Q166.37 0.59 164.74 0.48 163.12 0.37 161.51 0.1 159.9-0.17 158.33-0.62 156.77-1.07 155.38-1.76L155.38-1.76 155.33-33.2Q156.7-33.76 158.24-34.22 159.78-34.67 161.37-34.97 162.97-35.28 164.56-35.44 166.15-35.6 167.64-35.6L167.64-35.6Q169.37-35.6 171.14-35.38 172.91-35.16 174.55-34.64 176.18-34.13 177.6-33.31 179.01-32.5 180.08-31.3 181.14-30.1 181.74-28.52 182.33-26.93 182.33-24.85L182.33-24.85Q182.33-23.49 181.94-22.29 181.55-21.09 180.82-20.14 180.09-19.19 179.04-18.52 177.99-17.85 176.67-17.53L176.67-17.53Q178.26-17.11 179.56-16.31 180.87-15.5 181.78-14.36 182.7-13.21 183.2-11.77 183.7-10.33 183.7-8.69ZM171.3-22.61L171.3-22.61Q171.3-23.32 171.01-23.82 170.71-24.32 170.29-24.63 169.86-24.95 169.36-25.1 168.86-25.24 168.47-25.24L168.47-25.24Q167.98-25.24 167.51-25.1 167.05-24.95 166.61-24.76L166.61-24.76 166.46-19.34Q167.03-19.34 167.86-19.43 168.69-19.53 169.46-19.86 170.22-20.19 170.76-20.84 171.3-21.48 171.3-22.61ZM167.83-14.65L167.83-14.65Q167.12-14.65 166.46-14.5L166.46-14.5 166.37-8.94Q166.73-8.86 167.09-8.8 167.44-8.74 167.78-8.74L167.78-8.74Q168.3-8.74 168.91-8.85 169.52-8.96 170.05-9.29 170.59-9.62 170.94-10.18 171.3-10.74 171.3-11.67L171.3-11.67Q171.3-12.6 170.94-13.18 170.59-13.77 170.08-14.1 169.57-14.43 168.95-14.54 168.34-14.65 167.83-14.65ZM196.49-12.94L206.4-12.94 205.38-2.1 184.82-0.49 185.6-35.35 198.3-35.35 196.49-12.94ZM237.72-18.7L237.72-18.7Q237.72-16.48 237.21-14.42 236.7-12.35 235.73-10.55 234.77-8.74 233.39-7.24 232.01-5.74 230.29-4.66 228.57-3.59 226.54-2.99 224.52-2.39 222.25-2.39L222.25-2.39Q220.05-2.39 218.06-2.95 216.07-3.52 214.34-4.53 212.6-5.54 211.2-6.97 209.79-8.4 208.81-10.14 207.82-11.89 207.27-13.89 206.72-15.89 206.72-18.07L206.72-18.07Q206.72-20.19 207.23-22.23 207.74-24.27 208.71-26.07 209.67-27.88 211.04-29.39 212.41-30.91 214.1-32.01 215.8-33.11 217.78-33.72 219.76-34.33 221.95-34.33L221.95-34.33Q225.49-34.33 228.41-33.23 231.33-32.13 233.39-30.09 235.45-28.05 236.59-25.16 237.72-22.27 237.72-18.7ZM226.88-18.07L226.88-18.07Q226.88-19.12 226.58-20.1 226.27-21.09 225.69-21.86 225.1-22.63 224.24-23.11 223.37-23.58 222.25-23.58L222.25-23.58Q221.1-23.58 220.19-23.17 219.29-22.75 218.64-22.03 218-21.31 217.66-20.35 217.31-19.38 217.31-18.31L217.31-18.31Q217.31-17.29 217.61-16.26 217.9-15.23 218.49-14.4 219.07-13.57 219.94-13.06 220.81-12.55 221.95-12.55L221.95-12.55Q223.1-12.55 224.02-13 224.93-13.45 225.57-14.22 226.2-14.99 226.54-15.99 226.88-16.99 226.88-18.07ZM262.72-33.35L262.72-33.35 261.84-23.05Q261.13-23.24 260.45-23.32 259.77-23.39 259.06-23.39L259.06-23.39Q257.33-23.39 255.75-22.95 254.18-22.51 252.97-21.61 251.76-20.7 251.04-19.32 250.32-17.94 250.32-16.06L250.32-16.06Q250.32-14.7 250.72-13.68 251.12-12.67 251.87-12 252.61-11.33 253.68-10.99 254.74-10.64 256.03-10.64L256.03-10.64Q256.94-10.64 257.89-10.83 258.84-11.01 259.79-11.33 260.74-11.65 261.62-12.06 262.5-12.48 263.26-12.94L263.26-12.94 262.87-1.46Q261.92-0.98 260.82-0.6 259.72-0.22 258.56 0.06 257.4 0.34 256.24 0.49 255.08 0.63 254.03 0.63L254.03 0.63Q250.56 0.63 247.72-0.66 244.87-1.95 242.84-4.19 240.8-6.42 239.67-9.38 238.55-12.33 238.55-15.67L238.55-15.67Q238.55-19.68 239.69-23.14 240.82-26.61 243.03-29.16 245.24-31.71 248.5-33.17 251.76-34.62 255.98-34.62L255.98-34.62Q257.67-34.62 259.4-34.35 261.13-34.08 262.72-33.35ZM283.25-34.47L295.07-31.54 284.28-18.7 294.19-1.9 282.86 0.1 275.44-9.96 275.05-0.39 264.89 0 265.67-34.96 277.05-34.33 276.17-24.27 283.25-34.47ZM316.31-33.35L316.31-33.35 315.43-23.05Q314.72-23.24 314.04-23.32 313.35-23.39 312.64-23.39L312.64-23.39Q310.91-23.39 309.34-22.95 307.76-22.51 306.55-21.61 305.34-20.7 304.62-19.32 303.9-17.94 303.9-16.06L303.9-16.06Q303.9-14.7 304.31-13.68 304.71-12.67 305.45-12 306.2-11.33 307.26-10.99 308.32-10.64 309.62-10.64L309.62-10.64Q310.52-10.64 311.47-10.83 312.42-11.01 313.38-11.33 314.33-11.65 315.21-12.06 316.09-12.48 316.84-12.94L316.84-12.94 316.45-1.46Q315.5-0.98 314.4-0.6 313.3-0.22 312.14 0.06 310.98 0.34 309.82 0.49 308.66 0.63 307.61 0.63L307.61 0.63Q304.15 0.63 301.3-0.66 298.46-1.95 296.42-4.19 294.38-6.42 293.26-9.38 292.14-12.33 292.14-15.67L292.14-15.67Q292.14-19.68 293.27-23.14 294.41-26.61 296.62-29.16 298.83-31.71 302.08-33.17 305.34-34.62 309.57-34.62L309.57-34.62Q311.25-34.62 312.99-34.35 314.72-34.08 316.31-33.35ZM346.85-34.33L347.63-0.98 335.42-0.39 335.32-10.69 329.71-10.69 329.36 0 318.43 0 319.35-34.33 330.98-33.79 330.24-16.26 335.66-16.26 335.71-34.62 346.85-34.33ZM371.21-34.96L380.73-2.1 368.62-0.54 367.16-6.05 361.59-6.05 360.37-0.54 347.92-1.76 357.63-34.28 371.21-34.96ZM362.61-13.53L366.28-13.53 364.42-22.02 362.61-13.53ZM381-33.69L393.98-34.38 392.27-1.12 381.97-0.59 381-33.69ZM426.26-12.35L426.26-12.35Q426.26-9.59 426.2-6.9 426.13-4.2 426.01-1.46L426.01-1.46 411.95-1.71Q412.68-6.03 413.22-10.34 413.76-14.65 413.76-19.04L413.76-19.04Q413.76-19.36 413.73-20.07 413.71-20.78 413.63-21.67 413.56-22.56 413.43-23.5 413.29-24.44 413.06-25.22 412.83-26 412.5-26.5 412.17-27 411.71-27L411.71-27Q410.88-27 410.3-26.51 409.73-26.03 409.35-25.26 408.97-24.49 408.75-23.54 408.53-22.58 408.42-21.63 408.31-20.68 408.28-19.84 408.24-18.99 408.24-18.46L408.24-18.46Q408.12-14.14 408.04-9.88 407.97-5.62 407.85-1.27L407.85-1.27 395.4-0.73Q395.89-9.35 396.34-17.87 396.79-26.39 397.06-35.01L397.06-35.01 408.58-35.6 408.48-31.69Q409.17-32.52 409.96-33.25 410.75-33.98 411.66-34.51 412.56-35.03 413.57-35.34 414.59-35.64 415.71-35.64L415.71-35.64Q417.78-35.64 419.35-34.96 420.91-34.28 422.03-33.11 423.16-31.93 423.91-30.33 424.67-28.74 425.13-26.93 425.6-25.12 425.84-23.16 426.09-21.19 426.17-19.29 426.26-17.38 426.26-15.6 426.26-13.82 426.26-12.35Z" opacity="1" transform="matrix(1,0,0,1,0,0)" fill="#000000" class="slogan-text-1" data-fill-palette-color="secondary" id="text-1"></path></svg></g></svg></g></svg></g></svg></g><g><svg viewBox="0 0 245.65351679999992 219.74097818838354" height="219.74097818838354" width="245.65351679999992"><g><svg xmlns="http://www.w3.org/2000/svg" xmlns:xlink="http://www.w3.org/1999/xlink" version="1.1" x="0" y="0" viewBox="5.493 9.132432152620149 90.00015236235141 80.50656784737984" enable-background="new 0 0 100 100" xml:space="preserve" height="219.74097818838354" width="245.65351679999992" class="icon-icon-0" data-fill-palette-color="accent" id="icon-0"><path d="M69.673 44.032c-0.379 0-0.741-0.216-0.909-0.582l-2.305-5.007c-0.231-0.501-0.012-1.095 0.49-1.326 0.504-0.232 1.097-0.011 1.326 0.49l2.305 5.007c0.231 0.501 0.012 1.095-0.49 1.326C69.954 44.003 69.812 44.032 69.673 44.032zM76.51 38.607c0.319-0.451 0.212-1.075-0.239-1.394l-4.5-3.184c-0.45-0.319-1.074-0.211-1.394 0.239-0.319 0.451-0.212 1.075 0.239 1.394l4.5 3.184c0.175 0.124 0.377 0.184 0.576 0.184C76.006 39.03 76.314 38.883 76.51 38.607zM79.402 30.779c0.051-0.55-0.354-1.037-0.904-1.088l-5.488-0.507c-0.558-0.047-1.037 0.354-1.088 0.903-0.051 0.55 0.354 1.037 0.904 1.088l5.488 0.507c0.031 0.003 0.063 0.004 0.093 0.004C78.918 31.687 79.354 31.298 79.402 30.779zM55.431 42.218l3.184-4.5c0.319-0.451 0.212-1.075-0.239-1.394-0.45-0.32-1.074-0.211-1.394 0.239l-3.184 4.5c-0.319 0.451-0.212 1.075 0.239 1.394 0.175 0.124 0.377 0.184 0.576 0.184C54.927 42.641 55.235 42.494 55.431 42.218zM62.953 44.446l0.507-5.489c0.051-0.55-0.354-1.037-0.904-1.087-0.558-0.05-1.037 0.354-1.088 0.904l-0.507 5.489c-0.051 0.55 0.354 1.037 0.904 1.087 0.031 0.003 0.063 0.004 0.093 0.004C62.469 45.354 62.905 44.965 62.953 44.446zM77.378 23.269c0.011 0.4-0.218 0.768-0.582 0.936l-7.413 3.413c0.502 1.378 0.504 2.874-0.01 4.265-0.574 1.555-1.722 2.794-3.231 3.489-0.839 0.386-1.72 0.569-2.588 0.569-2.184 0-4.271-1.168-5.398-3.153l-7.421 3.417c-0.134 0.062-0.276 0.092-0.418 0.092-0.243 0-0.483-0.088-0.671-0.258-0.297-0.269-0.405-0.688-0.274-1.067l4.126-12.005-3.674-7.98c-0.091-0.197-0.094-0.403-0.057-0.601l-14.797 2.74v1.851c0 0.036-0.089 0.424-0.15 0.523-0.003 0.009-21.496 34.207-21.496 34.207l9.093 24.208h12.456c0.553 0 1 0.447 1 1v5.421c0 0.553-0.447 1-1 1H6.493c-0.553 0-1-0.447-1-1v-5.421c0-0.553 0.447-1 1-1h9.668L7.158 53.945c-0.008-0.022-0.085-0.222-0.07-0.428 0.014-0.193 0.12-0.391 0.156-0.449 0.021-0.034 22.659-36.706 22.659-36.706 0.078-0.125 0.096-0.187 0.256-0.31 0.155-0.12 0.409-0.147 0.413-0.148l24.719-4.578c0.028-0.005 0.111-0.022 0.139-0.024l4.512-2.078c0.241-0.11 0.516-0.122 0.765-0.03s0.451 0.279 0.562 0.52l3.674 7.98 11.804 4.671C77.118 22.514 77.366 22.869 77.378 23.269zM33.874 79.914H7.493v3.421h26.381V79.914zM11.522 54.594H9.538l8.76 23.32h1.983L11.522 54.594zM32.6 19.278l-1.532-0.994L9.887 52.594h1.775L32.6 19.278zM52.059 15.057l3.006 6.527 7.812-3.596L59.87 11.46 52.059 15.057zM67.543 28.465l-7.558 3.48c1.105 1.774 3.372 2.507 5.32 1.61 1.023-0.472 1.803-1.312 2.191-2.366C67.825 30.302 67.826 29.354 67.543 28.465zM73.836 23.366l-9.604-3.8-8.851 4.075-3.357 9.769L73.836 23.366z" fill="#000000" data-fill-palette-color="accent"></path><path d="M72.87 86.633c-0.536 0-1.072-0.099-1.578-0.298-3.911-1.54-8.286-2.965-13.763-2.965-1.346 0-2.692 0.061-4.003 0.18-1.136 0.107-3.511 0.528-6.685 1.183-0.485 0.1-0.974-0.173-1.144-0.641l-7.159-19.896c-0.187-0.52 0.083-1.093 0.603-1.28 0.521-0.187 1.092 0.084 1.28 0.603L47.287 82.6c2.152-0.435 4.688-0.911 6.054-1.041 1.375-0.125 2.783-0.188 4.188-0.188 5.811 0 10.4 1.491 14.496 3.104 0.703 0.276 1.517 0.188 2.177-0.235 3.142-2.017 7.052-3.948 10.459-5.168 3.089-1.112 6.357-1.878 9.715-2.275 0.538-0.07 1.045 0.327 1.11 0.876 0.064 0.548-0.327 1.045-0.876 1.11-3.206 0.38-6.326 1.11-9.273 2.171-3.226 1.155-7.078 3.059-10.055 4.97C74.55 86.392 73.709 86.633 72.87 86.633zM95.343 74.65c-0.161 0.258-0.43 0.429-0.732 0.465-3.206 0.38-6.326 1.11-9.273 2.171-5.613 2.01-9.685 3.903-12.104 5.63-0.173 0.122-0.376 0.186-0.581 0.186-0.129 0-0.259-0.025-0.382-0.076-5.213-2.154-9.106-3.321-14.74-3.321-1.346 0-2.692 0.061-4.003 0.18-1.529 0.146-2.765 0.369-4.508 0.729-0.491 0.098-0.978-0.175-1.145-0.646l-6.892-19.44c-0.097-0.272-0.07-0.574 0.072-0.826s0.388-0.431 0.671-0.488c2.943-0.597 5.97-0.899 8.997-0.899 6.096 0 10.003 1.329 14.665 3.237 6.012-5.047 15.323-7.361 22.155-7.842 0.444-0.033 0.863 0.239 1.013 0.663l6.88 19.417C95.537 74.074 95.503 74.392 95.343 74.65zM57.529 77.704c5.181 0 8.949 0.926 13.417 2.643l-6.158-16.879c-4.518-1.854-8.267-3.156-14.066-3.156-2.506 0-5.012 0.217-7.465 0.646l6.211 17.522c1.197-0.237 2.432-0.45 3.871-0.588C54.716 77.768 56.124 77.704 57.529 77.704zM93.139 73.293l-6.212-17.53c-6.403 0.566-14.743 2.748-20.17 7.265l6.401 17.545c2.613-1.638 6.385-3.336 11.503-5.168C87.369 74.43 90.216 73.721 93.139 73.293zM72.519 65.574c3.573-1.979 7.966-3.448 12.702-4.248 0.545-0.092 0.912-0.608 0.82-1.152-0.093-0.544-0.608-0.91-1.152-0.82-4.958 0.837-9.57 2.383-13.339 4.471-0.483 0.268-0.658 0.877-0.391 1.359 0.183 0.33 0.524 0.516 0.876 0.516C72.199 65.699 72.365 65.659 72.519 65.574zM63.762 66.256c0.18-0.521-0.097-1.091-0.619-1.271-3.857-1.332-7.072-1.875-11.096-1.875-1.488 0-2.856 0.067-4.184 0.206-0.55 0.057-0.948 0.549-0.891 1.098 0.056 0.549 0.543 0.951 1.098 0.891 1.258-0.131 2.559-0.194 3.977-0.194 3.785 0 6.811 0.512 10.443 1.766 0.107 0.037 0.218 0.055 0.326 0.055C63.231 66.93 63.619 66.67 63.762 66.256zM73.955 69.491c3.528-1.984 7.911-3.48 12.674-4.327 0.544-0.097 0.906-0.615 0.81-1.159-0.096-0.543-0.615-0.906-1.159-0.81-4.981 0.885-9.582 2.459-13.305 4.552-0.481 0.271-0.652 0.881-0.382 1.362 0.184 0.326 0.523 0.51 0.873 0.51C73.632 69.619 73.8 69.578 73.955 69.491zM65.364 70.676c0.177-0.522-0.104-1.091-0.627-1.268-3.631-1.229-6.84-1.753-10.73-1.753-1.496 0-3.021 0.079-4.533 0.234-0.55 0.057-0.949 0.548-0.893 1.098 0.058 0.549 0.539 0.937 1.098 0.893 1.444-0.149 2.9-0.225 4.328-0.225 3.66 0 6.677 0.493 10.09 1.647 0.106 0.036 0.214 0.053 0.32 0.053C64.834 71.355 65.224 71.093 65.364 70.676zM75.476 73.625c3.496-2.021 7.865-3.544 12.636-4.401 0.544-0.098 0.905-0.618 0.808-1.161-0.098-0.544-0.619-0.907-1.161-0.808-4.996 0.898-9.59 2.502-13.284 4.64-0.478 0.276-0.642 0.888-0.364 1.366 0.185 0.32 0.521 0.499 0.866 0.499C75.146 73.76 75.317 73.717 75.476 73.625zM67.034 75.001c0.172-0.524-0.114-1.09-0.639-1.262-3.505-1.149-6.615-1.64-10.401-1.64-1.599 0-3.229 0.09-4.849 0.266-0.549 0.06-0.945 0.554-0.886 1.103 0.06 0.548 0.544 0.941 1.103 0.886 1.547-0.169 3.105-0.254 4.632-0.254 3.562 0 6.486 0.461 9.778 1.54 0.104 0.034 0.208 0.05 0.312 0.05C66.505 75.689 66.896 75.422 67.034 75.001z" fill="#000000" data-fill-palette-color="accent"></path><path d="M46.985 89.639H26.013c-0.553 0-1-0.447-1-1s0.447-1 1-1h20.973c0.553 0 1 0.447 1 1S47.538 89.639 46.985 89.639zM62.536 88.639c0-0.553-0.447-1-1-1h-7.659c-0.553 0-1 0.447-1 1s0.447 1 1 1h7.659C62.089 89.639 62.536 89.191 62.536 88.639z" fill="#000000" data-fill-palette-color="accent"></path></svg></g></svg></g></svg></g><defs></defs></svg><rect width="395.52" height="132.20108751913068" fill="none" stroke="none" visibility="hidden"></rect></g></svg></g></svg>